# xmcd CD database file
# Copyright (C) 1997 Ti Kan
# 
# Track frame offsets:
#     150
#     13593
#     27460
#     39323
#     52375
#     65815
#     76625
#     95928
#     108175
#     120625
#     132853
#     148053
#     160175
#     173735
# 
# Disc length: 2532 seconds
# 
# Revision: 1
# Processed by: cddbd v1.4b41PL1 Copyright (c) Steve Scherf et al.
# Submitted via: DiscPlay 4.0.4
# 
DISCID=c009e20e
DTITLE=TAMMY WYNETTE - SINGING MY SONGS
DYEAR=1900
DGENRE=
TTITLE0=APARTMENT #9
TTITLE1='TIL I CAN MAKE IT ON MY OWN
TTITLE2=I DON'T WANNA PLAY HOUSE
TTITLE3=TOO FAR GONE
TTITLE4=D-I-V-O-R-C-E
TTITLE5=SINGING MY SONG
TTITLE6=BEDTIME STORY
TTITLE7=LIAR'S ROSES
TTITLE8=WE SURE CAN LOVE EACH OTHER
TTITLE9=STAND BY YOUR MAN
TTITLE10=YOU AND ME
TTITLE11=TILL I GET IT RIGHT
TTITLE12=WOMAN TO WOMAN
TTITLE13=HOW GREAT THOU ART
EXTD=
EXTT0=
EXTT1=
EXTT2=
EXTT3=
EXTT4=
EXTT5=
EXTT6=
EXTT7=
EXTT8=
EXTT9=
EXTT10=
EXTT11=
EXTT12=
EXTT13=
PLAYORDER=
